<?xml version="1.0" encoding="UTF-8" standalone="no"?>
<!-- Created with Inkscape (http://www.inkscape.org/) -->

<svg
   xmlns:dc="http://purl.org/dc/elements/1.1/"
   xmlns:cc="http://creativecommons.org/ns#"
   xmlns:rdf="http://www.w3.org/1999/02/22-rdf-syntax-ns#"
   xmlns:svg="http://www.w3.org/2000/svg"
   xmlns="http://www.w3.org/2000/svg"
   xmlns:sodipodi="http://sodipodi.sourceforge.net/DTD/sodipodi-0.dtd"
   xmlns:inkscape="http://www.inkscape.org/namespaces/inkscape"
   width="210mm"
   height="297mm"
   viewBox="0 0 210 297"
   version="1.1"
   id="svg5924"
   inkscape:version="0.92.2 2405546, 2018-03-11"
   sodipodi:docname="rakete_gravur.svg">
  <defs
     id="defs5918">
    <clipPath
       clipPathUnits="userSpaceOnUse"
       id="clipPath5213-2">
      <path
         style="opacity:1;fill:#000000;fill-opacity:1;fill-rule:evenodd;stroke:#000000;stroke-width:0.99999994;stroke-linecap:butt;stroke-linejoin:miter;stroke-miterlimit:4;stroke-dasharray:none;stroke-opacity:1"
         d="m 91.659226,61.331843 6.614583,7.181548 50.837801,-17.197917 c 32.56121,-6.485495 39.41446,-2.260176 49.97311,0.05535 -23.25776,25.900309 -29.09002,23.277169 -38.756,28.126804 l -52.0939,13.483003 -0.13363,1.269529 c 2.28238,-0.04491 6.4095,-0.57159 6.84746,-0.133631 0.57116,0.571164 -0.3162,2.059763 -4.65036,3.924856 l -13.460073,2.766035 -6.236605,10.7399 c 5.483111,0.10312 10.580238,0.25448 10.463128,1.05762 -6.863604,6.94006 -21.685589,4.80332 -27.359382,4.10041 l 6.715791,-4.10239 2.355636,-13.4735 -7.9375,1.70089 C 66.253262,96.844837 65.600199,91.050049 67.090774,84.766367 L 62.366073,83.254461 51.59375,84.955351 C 57.922869,79.260872 69.908859,71.327058 76.162202,74.37202 l -3.212796,3.212796 3.413247,0.857165 7.170086,-2.936031 c 0,0 -2.645833,-6.425599 -2.834822,-7.181548 -0.05368,-0.214699 -0.211355,-0.690803 -0.983716,-0.784109 -1.947119,-0.235217 -7.163041,1.975062 -5.653796,0.173255 5.981504,-7.141017 14.185646,-12.001117 23.268463,-13.185278 z"
         id="path5215-9"
         inkscape:connector-curvature="0"
         sodipodi:nodetypes="cccccccscccccccccccccccssscc" />
    </clipPath>
    <filter
       style="color-interpolation-filters:sRGB"
       inkscape:label="Lightness-Contrast"
       id="filter5234-1">
      <feColorMatrix
         values="0.21 0.72 0.072 0 0 0.21 0.72 0.072 0 0 0.21 0.72 0.072 0 0 0 0 0 1 0 "
         id="feColorMatrix5232-2"
         result="fbSourceGraphic" />
      <feColorMatrix
         result="fbSourceGraphicAlpha"
         in="fbSourceGraphic"
         values="0 0 0 -1 0 0 0 0 -1 0 0 0 0 -1 0 0 0 0 1 0"
         id="feColorMatrix5252-7" />
      <feColorMatrix
         id="feColorMatrix5254-0"
         values="1.695 0 0 -0.218295 -0.3475 0 1.695 0 -0.218295 -0.3475 0 0 1.695 -0.218295 -0.3475 0 0 0 1 0"
         in="fbSourceGraphic"
         result="fbSourceGraphic" />
      <feColorMatrix
         result="fbSourceGraphicAlpha"
         in="fbSourceGraphic"
         values="0 0 0 -1 0 0 0 0 -1 0 0 0 0 -1 0 0 0 0 1 0"
         id="feColorMatrix5256-9" />
      <feColorMatrix
         id="feColorMatrix5258-3"
         values="1.695 0 0 -0.218295 -0.3475 0 1.695 0 -0.218295 -0.3475 0 0 1.695 -0.218295 -0.3475 0 0 0 1 0"
         in="fbSourceGraphic" />
    </filter>
  </defs>
  <sodipodi:namedview
     id="base"
     pagecolor="#ffffff"
     bordercolor="#666666"
     borderopacity="1.0"
     inkscape:pageopacity="0.0"
     inkscape:pageshadow="2"
     inkscape:zoom="1.979899"
     inkscape:cx="246.63202"
     inkscape:cy="617.064"
     inkscape:document-units="mm"
     inkscape:current-layer="layer1"
     showgrid="false"
     inkscape:window-width="2560"
     inkscape:window-height="1376"
     inkscape:window-x="0"
     inkscape:window-y="27"
     inkscape:window-maximized="1" />
  <metadata
     id="metadata5921">
    <rdf:RDF>
      <cc:Work
         rdf:about="">
        <dc:format>image/svg+xml</dc:format>
        <dc:type
           rdf:resource="http://purl.org/dc/dcmitype/StillImage" />
        <dc:title></dc:title>
      </cc:Work>
    </rdf:RDF>
  </metadata>
  <g
     inkscape:label="Layer 1"
     inkscape:groupmode="layer"
     id="layer1">
    <path
       style="fill:#000000;stroke-width:3.77952766"
       clip-path="none"
       d="M 501.42578 293.97656 C 501.0587 293.97656 500.69254 294.03412 500.41406 294.14648 C 499.85711 294.37122 500.31188 294.55469 501.42578 294.55469 C 502.53968 294.55469 502.9964 294.37122 502.43945 294.14648 C 502.161 294.03412 501.79286 293.97656 501.42578 293.97656 z M 477.13867 295.43555 C 476.04727 295.42976 474.60962 295.44937 472.78711 295.48828 C 469.73355 295.55348 466.45254 295.91996 465.49609 296.30273 C 463.19739 297.22249 475.50559 297.21715 478.56055 296.29688 C 480.56005 295.69466 480.41286 295.45289 477.13867 295.43555 z M 514.04883 295.49219 C 512.69451 295.49219 511.56374 296.3436 510.38672 298.24805 C 509.45027 299.76329 508.14563 301.20989 507.48633 301.46289 C 505.74351 302.13167 503.69504 301.13377 504.18555 299.85547 C 505.01583 297.6918 501.6644 297.06703 491.92773 297.57031 C 480.34885 298.16882 477.36282 299.68941 488.06055 299.53906 C 497.44821 299.4071 497.375 299.40066 497.375 300.35352 C 497.375 300.80423 495.20415 301.16406 492.48047 301.16406 C 486.02972 301.16406 467.53265 303.23451 456.87109 305.15039 C 448.0146 306.7419 429.32658 311.44248 422.60352 313.76953 C 417.24966 315.62266 416.32976 317.3722 415.95898 326.41016 L 415.64844 333.97266 L 416.33789 326.96875 C 416.71732 323.11642 417.45137 319.17373 417.96875 318.20703 C 418.99304 316.29309 424.59688 313.58492 429.73242 312.52344 C 431.51466 312.15506 437.89316 310.57841 443.9082 309.01758 C 449.92325 307.45675 458.85353 305.58645 463.75195 304.86133 C 475.63422 303.1024 496.60634 301.71765 502.64062 302.29492 C 508.11512 302.81864 508.70281 302.58411 511.61523 298.68359 L 513.69336 295.89844 L 513.05469 299.13867 C 511.68616 306.08277 512.33111 312.61368 514.85156 317.36523 C 516.15149 319.81581 517.3371 322.09355 517.48828 322.42773 C 517.63935 322.7619 517.17451 323.03516 516.45508 323.03516 C 515.73561 323.03516 514.93827 322.48865 514.68164 321.82031 C 513.92252 319.84205 510.98134 320.40887 504.59961 323.76367 C 498.79187 326.81674 480.40451 335.01671 465.37695 341.25391 C 461.36691 342.91828 456.99292 344.83263 455.65625 345.50781 C 454.31958 346.183 451.03861 347.39506 448.36523 348.20117 C 445.6919 349.00729 439.65011 351.02939 434.93945 352.69531 C 430.2288 354.36125 425.79075 355.50001 425.07812 355.22656 C 422.82496 354.36195 419.61502 347.7661 418.03125 340.74805 C 417.19023 337.02135 416.47139 334.63043 416.43359 335.43359 C 416.27826 338.7548 419.00048 348.04359 421.32031 352.10547 L 423.80664 356.45898 L 427.63867 356.00391 C 429.74614 355.75431 432.71932 355.02001 434.24609 354.37109 C 443.25876 350.54035 445.514 349.70286 449.17383 348.82617 C 451.40163 348.29253 454.32602 347.20607 455.67188 346.41211 C 457.01773 345.61815 459.56874 344.45075 461.3418 343.81836 C 463.11489 343.18597 466.57091 341.77173 469.02148 340.67578 C 471.47205 339.57984 478.94553 336.34797 485.62891 333.49414 C 492.31232 330.64031 500.20013 326.95523 503.15625 325.30469 C 509.95093 321.51085 512.57935 320.79213 513.25195 322.54492 C 513.52657 323.26052 514.54266 323.8457 515.50977 323.8457 C 517.61126 323.8457 520.86914 325.9734 520.86914 327.3457 C 520.86914 328.34204 515.94035 333.50506 511.55273 337.10547 C 510.21607 338.20232 509.32716 339.30669 509.57812 339.55859 C 509.82927 339.81051 511.83574 338.36028 514.03516 336.33594 C 514.45122 335.95299 514.93532 335.53136 515.41602 335.11133 C 520.406 330.48506 525.80448 325.19711 531.72656 319.05469 C 531.72416 319.01103 531.70151 318.98633 531.6543 318.98633 C 531.24327 318.98633 529.67166 320.26086 528.16016 321.82031 C 526.64869 323.37977 524.91751 324.65625 524.31445 324.65625 C 521.62547 324.65625 518.32788 321.95261 516.41797 318.18359 C 513.84536 313.10646 513.82869 311.66462 516.375 314.41211 C 517.46762 315.59107 518.65254 316.54366 519.00781 316.5293 C 520.79436 316.45619 528.29879 313.39183 532.49414 311.02344 C 536.86584 308.5555 537.34342 308.44881 538.6582 309.63867 C 539.17522 310.10656 539.53903 310.35825 539.95312 310.32422 C 541.89959 308.22093 543.8926 306.04038 545.94141 303.76953 C 545.95943 303.71494 545.98242 303.65504 545.98242 303.61914 C 545.98242 302.68752 543.28375 301.14254 541.7832 301.21484 C 541.19696 301.24309 541.53654 301.59509 542.53906 301.99805 C 544.80289 302.90793 544.86912 304.70702 542.7168 306.85938 C 541.51283 308.06334 540.70567 308.30083 539.71094 307.74414 C 538.23239 306.9167 533.38036 308.46248 529.7793 310.9082 C 526.3304 313.25061 520.07108 315.69899 518.78906 315.20703 C 515.27346 313.85797 513.8255 304.3853 516.88477 302.74805 C 517.81268 302.25144 523.32485 301.70859 529.13281 301.54297 C 534.94074 301.37733 539.89218 301.04145 540.13672 300.79688 C 540.38129 300.55231 535.46262 300.35352 529.20508 300.35352 C 520.0802 300.35352 517.62722 300.59377 516.81836 301.56836 C 514.28298 304.6233 512.33379 301.49707 514.76758 298.2793 C 516.44229 296.06515 516.29402 295.49219 514.04883 295.49219 z M 450.91992 296.00391 C 444.34877 296.91303 437.21698 298.05408 429.49023 299.44336 L 430.21875 299.64648 C 431.28786 299.94499 432.70862 299.99277 433.37695 299.75391 C 435.23108 299.09123 439.53064 298.15777 447.55469 296.67383 C 448.73255 296.456 449.85614 296.22855 450.91992 296.00391 z M 460.32031 296.30273 C 457.14744 296.30273 455.52481 297.11662 456.58398 298.17578 C 457.20122 298.79301 461.90207 297.9231 462.90625 297.00586 C 463.35288 296.59791 462.26711 296.30273 460.32031 296.30273 z M 450.19727 298.0332 C 449.29266 298.0644 448.02944 298.30443 446.99219 298.66602 C 445.60922 299.14813 443.27842 299.54297 441.81445 299.54297 C 440.35045 299.54297 438.12732 299.93694 436.87305 300.41797 C 435.61874 300.899 432.42916 301.45736 429.78516 301.6582 C 425.18868 302.00736 422.8457 302.96632 422.8457 304.50195 C 422.8457 305.54009 425.5398 305.37318 429.50195 304.08789 C 431.41114 303.46857 434.79567 302.76722 437.02344 302.5293 C 441.94725 302.00342 452.99187 298.47275 450.96094 298.07422 C 450.76096 298.03498 450.4988 298.0228 450.19727 298.0332 z M 456.03516 300.35352 C 454.57569 300.35352 449.51841 301.24421 444.79688 302.33398 C 440.0753 303.42375 433.33708 304.95587 429.82227 305.73828 C 422.84333 307.29183 419.1386 309.46839 421.18359 310.8125 C 421.96751 311.32774 423.31018 311.17146 425.23438 310.3418 C 430.59654 308.0298 434.57719 306.8459 439.45312 306.11523 C 442.1265 305.71463 446.428 304.80207 449.01172 304.08594 C 451.5954 303.3698 454.37658 302.7832 455.19141 302.7832 C 456.00623 302.7832 457.125 302.2367 457.67969 301.56836 C 458.54123 300.53027 458.30197 300.35352 456.03516 300.35352 z M 421.10742 301.18164 C 419.39694 301.19632 415.76968 302.17246 414.11328 303.25781 C 412.17518 304.5277 412.12954 304.69196 413.45898 305.66406 C 416.14423 307.62757 414.58245 309.43208 407.45312 312.59766 C 403.66585 314.27927 399.83836 315.88154 398.94727 316.1582 C 397.78582 316.51882 397.64054 316.78732 398.43359 317.10938 C 399.0421 317.35648 400.86507 317.14182 402.48438 316.63281 C 407.07956 315.18834 409.47852 315.16027 409.47852 316.55078 C 409.47852 317.36206 406.92136 318.63624 401.7832 320.38281 C 394.47409 322.86735 391.36124 324.13315 386.11719 326.75195 C 384.85244 327.38355 383.49978 327.70371 383.11328 327.46484 C 382.72679 327.22597 381.02836 327.6358 379.33789 328.375 C 377.64746 329.1142 374.07767 330.36797 371.4043 331.16016 C 365.95902 332.77375 351.05884 338.0739 344.26562 340.81445 C 341.81505 341.80308 334.5231 344.43993 328.0625 346.67383 C 309.27698 353.16932 292.81224 358.97855 281.48242 363.10938 C 275.69016 365.2212 267.8517 367.98082 264.06445 369.24023 C 260.2772 370.49961 255.73869 372.13729 253.97852 372.87891 C 250.98225 374.1424 250.62829 374.13903 248.43555 372.84375 C 246.22423 371.53928 245.91909 371.54153 242.9707 372.87109 C 239.38772 374.48677 236.51591 374.00452 238.13086 372.05859 C 238.67137 371.40734 240.35644 370.64045 241.875 370.35547 C 245.9094 369.59862 248.78139 367.09519 248.21289 364.83008 C 247.79169 363.1519 248.45845 362.71934 256.11133 359.71094 C 260.70821 357.90387 265.92675 355.98095 267.70898 355.4375 C 272.48023 353.98265 277.83594 350.69845 277.83594 349.22656 C 277.83594 348.52009 274.37343 344.33381 270.14062 339.92383 C 265.90782 335.51385 262.44336 331.25206 262.44336 330.45312 C 262.44336 329.65419 265.72435 325.99185 269.73438 322.31445 C 270.80807 321.32982 271.71256 320.45767 272.54102 319.63672 L 276.6875 314.6582 C 277.28397 313.46686 277.15485 312.67838 276.35742 312.18555 C 274.78133 311.21147 263.26689 314.62824 250.22461 319.90039 C 243.21204 323.53609 236.63959 328.07477 230.60938 333.34961 C 235.75569 329.49752 242.23752 325.03798 246.11523 322.875 C 256.11533 317.29696 276.2168 311.35099 276.2168 313.9707 C 276.2168 314.3311 275.70997 315.3199 275.08984 316.16797 C 274.16091 317.43837 273.74536 317.52978 272.73047 316.6875 C 271.71679 315.84622 270.58825 316.07824 266.36328 317.99805 C 263.53948 319.28117 258.67751 321.91773 255.55859 323.85742 C 252.43969 325.79711 247.70069 328.58295 245.02734 330.04883 C 232.88854 336.70489 230.33288 338.05412 228.68555 338.67188 C 227.71771 339.03482 226.55276 340.40374 226.0957 341.71484 C 225.21228 344.24901 223.01091 344.91073 222.23047 342.87695 C 222.10486 342.54961 222.1303 342.04151 222.26562 341.48633 C 221.88751 341.89951 221.52449 342.32832 221.15234 342.74805 C 221.14433 342.84926 221.12891 342.95184 221.12891 343.05078 C 221.12891 344.51746 220.79388 345.71875 220.38477 345.71875 C 219.85194 345.71875 219.33577 345.60691 218.86914 345.42969 C 218.69562 345.67196 218.53785 345.90512 218.47461 346.08203 C 219.38671 346.36111 220.79591 346.45914 222.90234 346.44141 C 225.37057 345.90862 228.4138 345.11348 230.93945 344.75977 C 229.92259 344.29594 230.08699 344.20165 231.86328 344.15625 C 232.80057 344.13229 233.60409 344.32584 233.93164 344.61719 C 233.94239 344.61842 233.95612 344.61785 233.9668 344.61914 C 234.44411 344.67688 234.82462 344.79426 235.14062 344.94141 L 233.24805 341.55078 L 235.08789 339.99023 C 236.09969 339.13176 238.02075 337.7609 239.35742 336.94531 C 250.74515 329.997 254.09814 328.34324 257.74805 327.875 C 261.59938 327.38092 261.72471 327.42847 261.2793 329.20312 C 260.76925 331.23534 265.26654 337.12391 272.89062 344.4043 C 275.1657 346.57681 277.02734 348.64677 277.02734 349.00586 C 277.02734 350.45798 271.90834 353.13208 263.36719 356.14062 C 250.22031 360.77149 246.64844 362.6904 246.64844 365.125 C 246.64844 366.45766 245.97984 367.42294 244.62305 368.04883 C 236.92145 371.60151 236.11687 372.13315 236.10742 373.67188 C 236.09925 374.99705 235.58867 375.26725 233.27148 375.17578 C 231.71751 375.11417 225.07383 374.95852 218.50781 374.82812 C 211.9418 374.69792 206.66424 374.49607 206.78125 374.37891 C 207.6739 373.48626 213.23961 370.02148 213.78125 370.02148 C 214.4388 370.02148 217.07812 366.47849 217.07812 365.5957 C 217.07813 364.35912 213.78003 365.69524 203.98242 370.9043 C 198.04111 374.06307 191.65845 377.52753 189.79688 378.60156 C 187.9353 379.67555 185.74732 380.55431 184.93555 380.55469 C 184.12377 380.55503 181.27296 381.5874 178.59961 382.84961 C 175.92626 384.11186 172.82679 385.37102 171.71289 385.64844 C 170.59899 385.92597 168.95947 386.7392 168.06836 387.45508 C 166.53336 388.68804 166.63806 388.73687 170.0918 388.35352 C 172.09681 388.13094 174.64978 387.73546 175.76367 387.47656 C 176.61127 387.27956 176.16997 387.54831 174.83594 388.08789 L 184.60742 386.54102 C 182.39223 386.21549 180.15329 386.01766 179.00391 386.06836 L 176.16797 386.19336 L 178.44141 384.18359 C 179.7329 383.04187 181.71561 382.17383 183.0332 382.17383 C 184.30859 382.17383 186.01977 381.95307 186.83594 381.68359 C 187.65211 381.41415 186.86231 382.13266 185.08008 383.2793 C 183.29784 384.42593 182.06306 385.37355 182.33594 385.38867 C 183.23513 385.43448 194.62803 380.55894 195.69922 379.66992 C 196.27602 379.19109 197.40395 378.94988 198.20508 379.13281 C 199.19257 379.35826 198.19502 380.13289 195.10742 381.53906 C 192.6025 382.67988 190.27636 384.05839 189.93945 384.60352 C 189.32545 385.597 190.83238 387.05687 192.37109 386.95898 C 192.81667 386.93064 192.72492 386.72293 192.16797 386.49805 C 190.21087 385.70831 191.19583 384.49564 195.4082 382.50977 C 197.74738 381.40698 201.37778 379.37924 203.47461 378.00391 C 207.06848 375.64684 207.71892 375.50619 214.81641 375.5625 C 235.98185 375.7299 258.73808 377.05433 261.03125 378.25195 C 262.34309 378.93707 262.35661 379.18375 261.19922 381.42188 C 260.4364 382.89702 258.60857 384.4359 256.53711 385.3457 C 254.66277 386.16896 250.57594 387.9787 247.45703 389.36719 C 244.33812 390.75567 237.07918 393.71465 231.32422 395.94336 C 225.56926 398.17207 220.19203 399.99609 219.375 399.99609 C 217.14536 399.99609 217.58231 398.64765 220.3418 397.01758 C 221.6912 396.22048 222.69443 395.05536 222.57031 394.42773 C 222.03099 391.70039 208.53212 389.90868 206.54688 392.30078 C 205.0314 394.12682 203.51721 393.77127 202.33789 391.3125 C 201.53549 389.63957 200.64583 389.0771 198.64258 388.97656 C 198.21925 388.95533 197.77896 388.88868 197.34375 388.80469 L 200.81445 389.91797 C 200.78422 390.04558 200.76198 390.17137 200.73242 390.29883 C 201.27035 390.41983 201.6875 391.09753 201.6875 391.91797 C 201.6875 394.23841 203.97565 394.84032 206.75 393.24805 C 209.50826 391.66503 213.59774 391.51369 217.99805 392.83203 C 221.76099 393.95946 221.95263 395.10744 218.69922 397.0293 C 215.49209 398.92379 215.51098 400.80469 218.73633 400.80469 C 221.13991 400.80469 238.21826 394.33922 253.36328 387.69727 C 259.03251 385.21098 261.18103 383.83288 262.07227 382.10938 C 262.72296 380.85109 263.25586 379.49773 263.25586 379.10156 C 263.25586 377.9307 259.35867 376.5034 256.12891 376.48828 C 254.47903 376.48148 252.65825 376.1788 252.08398 375.81445 C 250.81029 375.00631 253.33256 373.94642 270.95117 367.88867 C 283.90537 363.4347 285.02722 363.02616 289.58398 361.08789 C 290.92066 360.51932 297.11765 358.30556 303.35547 356.16992 C 333.22178 345.94464 344.83912 341.84954 346.49219 340.96484 C 348.39613 339.94588 359.63611 336.0114 360.66992 336.00195 C 361.00426 335.99885 361.27734 336.56149 361.27734 337.25195 C 361.27734 339.11672 363.24222 342.57428 366.54492 346.52734 C 369.46948 350.02782 369.47722 350.05955 368.8457 355.37305 C 368.06296 361.95906 368.21521 365.93982 369.29102 367.01562 C 369.8457 367.57031 371.74001 366.32866 375.13281 363.1875 C 380.72511 358.01002 380.46524 358.04182 388.71875 361.51367 C 393.26813 363.42738 394.02624 363.54212 395.07812 362.49023 C 396.13001 361.43834 396.06975 360.84034 394.57227 357.45508 C 391.71608 350.99813 392.09979 349.75498 398.40234 345.06836 C 408.04959 337.89462 408.12909 336.39333 398.82812 336.99023 C 390.80426 337.50518 390.15926 336.97546 390.89453 330.47656 C 391.20869 327.69979 391.8728 325.1674 392.37109 324.84766 C 392.86935 324.52793 397.07362 322.97069 401.71484 321.38867 C 410.78318 318.29762 413.04374 316.49056 410.34766 314.48828 C 409.48925 313.85064 408.9427 313.21724 409.13281 313.08008 C 410.15688 312.34177 414.189 310.86662 414.45508 311.13281 C 414.62614 311.30386 414.26232 312.68469 413.64648 314.20117 C 411.88428 318.5407 411.38365 331.37246 412.69141 338.70312 C 414.45255 348.5753 418.88567 356.80768 428.35547 367.79297 C 429.47742 369.09464 429.39923 369.21094 427.40625 369.21094 C 425.83605 369.21094 425.02375 368.65045 424.4668 367.18555 C 423.3936 364.36284 421.53441 364.53255 407.57812 368.73047 C 401.04933 370.69431 393.88405 372.69196 391.65625 373.16992 C 387.86799 373.98271 375.25483 377.68361 369.7832 379.58789 C 367.34367 380.43689 354.22561 383.97639 340.62109 387.45703 C 336.61106 388.48298 331.39019 389.92295 329.01953 390.65625 C 326.64887 391.38952 324.10421 391.87258 323.36523 391.73047 C 322.62626 391.58813 324.01964 390.84503 326.46094 390.07812 C 328.90223 389.31122 335.37041 387.21847 340.83594 385.42773 C 346.30148 383.63696 351.23562 382.17188 351.80078 382.17188 C 352.36593 382.17188 355.55091 381.23757 358.87695 380.0957 C 362.20301 378.95383 368.56978 377.1315 373.02539 376.04492 C 377.48096 374.95835 384.041 373.01261 387.60547 371.72266 C 391.16994 370.4327 398.8269 368.00685 404.61914 366.33203 C 416.63535 362.85755 417.98633 362.29252 417.98633 360.74219 C 417.98633 359.01554 416.32899 358.83719 411.91016 360.08398 C 409.68235 360.71256 404.75989 362.08543 400.97266 363.13477 C 378.92728 369.24295 367.56476 372.54164 366.32617 373.19531 C 365.55462 373.60252 362.73587 374.54697 360.0625 375.29297 C 357.38917 376.03897 350.46218 378.0884 344.66992 379.84766 C 338.87766 381.60691 331.58766 383.7936 328.46875 384.70703 C 318.02427 387.7658 304.21805 392.02876 298.49414 393.96289 C 295.37523 395.01677 287.90176 397.1575 281.88672 398.71875 C 275.87168 400.28 268.21669 402.43741 264.875 403.51367 C 261.53331 404.58993 256.06434 406.27849 252.72266 407.26562 C 249.38096 408.25276 245.37196 409.56846 243.8125 410.19141 C 242.25304 410.81431 238.79054 411.82556 236.11719 412.4375 C 233.44384 413.04941 229.97937 414.08864 228.41992 414.74609 C 226.86047 415.4035 223.57948 416.39244 221.12891 416.94531 C 213.24855 418.72313 208.97852 420.3343 208.97852 421.52734 C 208.97852 423.04036 209.1797 423.0182 217.13867 420.625 C 220.89306 419.49609 226.51585 418.00533 229.63477 417.3125 C 232.75367 416.61971 236.7881 415.35555 238.59961 414.50391 C 240.41113 413.65227 242.75561 412.95508 243.80859 412.95508 C 244.86157 412.95508 246.84263 412.60364 248.21094 412.17383 C 256.99703 409.41383 258.40715 409.07998 258.77539 409.67578 C 259.37048 410.63865 251.82301 413.18485 233.28711 418.27148 C 227.2752 419.92129 221.25973 421.72696 219.91992 422.28516 C 218.5801 422.84339 216.41941 423.61648 215.11914 424.00195 C 211.92018 424.95031 211.60255 426.51125 214.38281 427.61328 C 215.6431 428.11286 217.76684 429.00544 219.10352 429.59766 L 221.53516 430.67383 L 219.43555 430.72656 C 219.00934 430.73709 218.53111 430.68183 218.02539 430.58789 C 219.02798 431.12139 220.06408 431.64695 221.16406 432.1582 L 242.00977 427.68555 L 241.99414 427.77148 L 244.2168 427.10938 C 248.35696 425.87506 253.19265 424.60213 260.82422 422.73633 C 264.16591 421.91935 267.83095 420.88016 268.96875 420.42578 C 271.95658 419.23258 285.84876 416.64956 286.38672 417.1875 C 286.82863 417.6294 285.91391 419.62846 282.04102 426.68359 C 281.01247 428.55729 280.3105 430.50776 280.48047 431.01758 C 280.54518 431.21171 280.44539 431.49976 280.22461 431.83203 L 282.24805 431.41602 C 281.50614 431.27171 281.07617 431.00823 281.07617 430.5918 C 281.07617 430.04365 282.32512 427.57263 283.85156 425.09961 C 285.378 422.62655 286.87559 419.61199 287.17969 418.40039 C 287.6643 416.46947 287.49685 416.1967 285.82227 416.19727 C 283.21301 416.19817 272.57183 418.40727 268.11523 419.87305 C 263.96176 421.23908 253.45816 423.95554 247.45898 425.21484 C 245.23163 425.68241 242.49716 426.53671 241.38281 427.11328 C 239.32308 428.17899 226.92587 430.79076 223.95703 430.7832 C 223.0617 430.78116 221.87555 430.05389 221.32227 429.16797 C 220.71827 428.20083 219.02313 427.35012 217.07812 427.03906 C 213.15828 426.41227 212.90786 425.44184 216.4668 424.66016 C 217.91308 424.34252 220.19279 423.61879 221.53125 423.05273 C 222.86972 422.48671 225.42285 421.62931 227.20508 421.14844 C 237.19086 418.45413 245.89289 415.88126 252.65234 413.625 C 256.84608 412.22514 262.31309 410.61118 264.80273 410.03711 C 267.29237 409.46304 272.61106 408.07138 276.62109 406.94531 C 280.63112 405.81924 286.46312 404.2969 289.58203 403.5625 C 292.70094 402.8281 296.1654 401.77493 297.2793 401.2207 C 298.39319 400.66644 301.30919 399.7703 303.75977 399.23047 C 308.52856 398.17995 315.04165 396.25597 318.3418 394.92188 C 319.4557 394.47158 323.4647 393.27993 327.25195 392.27344 C 331.0392 391.26699 337.73039 389.48695 342.11914 388.31836 C 346.50789 387.14973 350.69842 385.89314 351.43359 385.52539 C 352.16876 385.15779 356.41744 384.03953 360.87305 383.04102 C 365.32862 382.0425 370.6141 380.5353 372.61914 379.69141 C 374.62414 378.84751 379.18166 377.39175 382.74609 376.45703 C 386.31057 375.52232 391.04958 374.28187 393.27734 373.69922 C 395.50515 373.11657 402.46457 371.13863 408.74414 369.30469 C 415.02371 367.47075 420.77441 365.9707 421.52344 365.9707 C 422.27246 365.9707 423.23275 366.88223 423.65625 367.99609 C 424.15039 369.29576 425.05407 370.02148 426.17969 370.02148 C 428.07357 370.02148 434.55041 372.8961 436.76562 374.7207 C 439.06762 376.6167 437.56948 377.90313 431.49805 379.24414 C 400.67419 386.0522 390.82785 388.49969 391.51172 389.18359 C 391.83215 389.50402 402.33663 387.09137 413.11523 384.2207 C 417.44254 383.06819 419.90574 382.46567 421.41602 382.34961 L 441.02344 377.26758 C 439.83018 377.20222 439.04883 376.6008 439.04883 375.55859 C 439.04883 374.64882 443.696 374.69206 444.26172 375.60742 C 444.43288 375.88439 444.28991 376.22862 443.96094 376.50586 L 445.67578 376.0625 C 446.31819 375.73977 446.94966 375.43776 447.58008 375.13867 L 442.72852 373.90039 C 434.71131 371.85586 431.60792 369.92316 425.90234 363.41016 C 416.66915 352.87037 412.79255 342.6349 412.9082 329.10742 C 412.9994 318.42798 414.00579 314.50272 418.38672 307.73047 C 420.39361 304.62813 422.03516 301.83399 422.03516 301.51953 C 422.03516 301.27897 421.67758 301.17675 421.10742 301.18164 z M 546.38281 301.85156 C 546.73146 302.04585 546.98572 302.22477 547.1875 302.39648 C 547.27858 302.29503 547.3638 302.20335 547.45508 302.10156 C 547.09101 302.02162 546.7437 301.93316 546.38281 301.85156 z M 418.01367 302.80273 C 418.84827 302.78056 419.60547 303.00806 419.60547 303.50391 C 419.60547 303.9001 418.92484 305.06496 418.0918 306.09375 L 416.57617 307.96484 L 416.01367 306.19141 C 415.70413 305.21597 415.67728 304.05111 415.95508 303.60156 C 416.26664 303.09744 417.17907 302.82491 418.01367 302.80273 z M 513.22656 306.95312 C 513.45977 306.89693 513.81212 307.31134 514.06445 307.96875 C 514.35283 308.72007 514.40621 309.51552 514.18359 309.73828 C 513.96083 309.96106 513.54228 309.52867 513.25391 308.77734 C 512.96553 308.02602 512.91177 307.23058 513.13477 307.00781 C 513.16261 306.97996 513.19325 306.96115 513.22656 306.95312 z M 411.80664 307.66992 C 410.8587 307.65575 409.62886 308.19104 409.07422 308.85938 C 407.69768 310.51795 409.77364 310.53619 411.95703 308.88477 C 413.49855 307.7187 413.49639 307.69524 411.80664 307.66992 z M 425.57812 307.66992 C 427.26803 307.69518 427.27018 307.7187 425.72852 308.88477 C 423.54516 310.53625 421.46916 310.51801 422.8457 308.85938 C 423.40039 308.19104 424.63018 307.65594 425.57812 307.66992 z M 397.73242 309.28906 C 397.06409 309.28906 395.97107 309.64231 395.30273 310.07422 C 394.22258 310.77224 394.22258 310.85938 395.30273 310.85938 C 395.97107 310.85938 397.06409 310.50613 397.73242 310.07422 C 398.81254 309.37619 398.81254 309.28906 397.73242 309.28906 z M 404.9668 309.94922 C 403.40204 310.01116 400.6069 310.81526 398.7168 312.09961 C 397.07754 313.2135 394.89194 314.125 393.85938 314.125 C 392.82677 314.125 390.99614 314.62751 389.79297 315.24219 C 388.58983 315.85686 386.33092 316.62819 384.77148 316.95508 C 383.21201 317.28197 380.47755 318.18724 378.69531 318.9668 C 376.91308 319.74635 372.72061 321.37182 369.37891 322.58008 C 359.71968 326.07256 357.08923 327.11544 352.69141 329.18945 C 350.41909 330.26107 348.14795 331.13672 347.64453 331.13672 C 345.93176 331.13672 340.21484 333.73957 340.21484 334.51953 C 340.21484 335.35877 341.61364 335.02156 347.91211 332.6582 C 350.1399 331.82228 352.58695 331.13695 353.35156 331.13672 C 354.11618 331.1365 355.93916 330.62727 357.40234 330.00391 C 358.86553 329.38054 361.70395 328.25241 363.70898 327.49805 C 365.71399 326.74368 368.44654 325.64013 369.7832 325.04492 C 371.11991 324.44971 373.67284 323.5314 375.45508 323.00391 C 377.23731 322.47641 379.78833 321.56664 381.125 320.98242 C 388.84321 317.60906 397.7497 314.11468 400.56836 313.35352 C 402.3506 312.87223 404.51595 311.9365 405.38086 311.27539 C 406.65624 310.3005 406.18383 309.90104 404.9668 309.94922 z M 279.04883 310.57422 C 277.53648 310.79251 276.03331 311.04867 274.54102 311.34375 C 274.84107 311.3302 275.15738 311.31236 275.40625 311.31055 C 277.11858 311.29792 278.11761 311.72848 278.40625 312.5918 L 279.00977 311.86719 L 279.04883 310.57422 z M 417.62891 312.50391 C 417.43241 312.50391 417.04506 312.86889 416.76953 313.31445 C 416.49412 313.76002 416.65512 314.125 417.12695 314.125 C 417.59883 314.125 417.98438 313.76001 417.98438 313.31445 C 417.98437 312.86888 417.82544 312.50391 417.62891 312.50391 z M 535.49805 314.125 C 535.02617 314.125 534.64062 314.48999 534.64062 314.93555 C 534.64062 315.31388 534.7588 315.61909 534.91406 315.70703 C 535.27192 315.32958 535.61708 314.97314 535.97852 314.58984 C 536.00778 314.31794 535.83759 314.125 535.49805 314.125 z M 374.91211 315.94727 L 342.43359 326.94727 C 338.94464 328.17005 335.89345 329.44994 335.29102 329.99023 C 334.58759 330.6211 333.27411 331.13672 332.37305 331.13672 C 331.47198 331.13672 329.09953 332.00603 327.10156 333.06836 C 323.06164 335.21641 319.25418 336.10399 317.1543 335.51172 L 315.10938 336.20312 C 315.18178 338.06727 316.96112 337.99628 322.4043 335.93945 C 324.84858 335.01582 328.67064 333.58909 330.89844 332.76953 C 333.12623 331.94998 336.40722 330.5633 338.18945 329.6875 C 339.97169 328.8117 343.61766 327.46795 346.29102 326.70312 C 348.96437 325.9383 351.51538 325.01683 351.96094 324.6543 C 352.40649 324.29178 357.51045 322.30031 363.30273 320.22852 C 366.348 319.13927 370.57979 317.57426 374.91211 315.94727 z M 528.56055 317.66992 C 528.23752 317.66429 527.49138 318.06419 526.33398 318.97461 C 523.87162 320.9115 522.02969 321.06613 521.38672 319.39062 C 520.88472 318.08242 518.43945 317.69026 518.43945 318.91797 C 518.43945 319.32637 519.44073 320.4081 520.66602 321.32227 C 523.53248 323.46089 523.47435 323.46862 526.56445 320.58203 C 528.45731 318.81389 529.09893 317.67931 528.56055 317.66992 z M 268.38867 318.42188 C 268.54247 318.41629 268.65058 318.43964 268.70703 318.49609 C 269.81906 319.60811 267.47133 322.56198 263.80273 324.66602 C 259.90513 326.9014 253.51254 328.03146 253.54883 326.47852 C 253.57931 325.16987 266.08172 318.50561 268.38867 318.42188 z M 387.85742 320.61914 C 387.10401 320.61232 386.26186 320.97045 385.98633 321.41602 C 385.35265 322.44128 386.42522 322.44128 388.01172 321.41602 C 389.0591 320.73926 389.038 320.62972 387.85742 320.61914 z M 265.30859 321.14844 C 264.83812 321.17078 263.86404 321.50278 262.44531 322.22656 C 260.66308 323.13579 259.20508 324.05385 259.20508 324.26758 C 259.20508 325.02953 260.73022 324.63464 263.18359 323.23828 C 265.47619 321.93343 266.09272 321.1112 265.30859 321.14844 z M 383.32227 322.28516 C 383.00743 322.27589 382.53713 322.52032 382.125 322.93555 C 381.33088 323.73562 381.42359 323.82831 382.57812 323.38867 C 383.37697 323.08445 383.82757 322.63222 383.57812 322.38281 C 383.51576 322.32046 383.42721 322.28825 383.32227 322.28516 z M 522.96094 325.4668 C 523.66631 325.4668 524.10033 325.89863 523.92383 326.42773 C 523.42312 327.92984 521.67969 328.18059 521.67969 326.75 C 521.67969 326.04453 522.25545 325.4668 522.96094 325.4668 z M 516.33594 325.62695 C 514.12194 325.80659 508.7168 329.664 508.7168 331.21875 C 508.7168 333.43867 504.11018 337.48105 500.37109 338.54297 C 498.50087 339.07412 496.03867 340.35926 494.90039 341.39844 C 493.76215 342.43762 492.42419 343.28906 491.92578 343.28906 C 491.42741 343.28906 489.97277 344.16954 488.69336 345.24609 C 487.41395 346.32264 484.97714 347.46275 483.2793 347.78125 C 480.34007 348.33266 480.23518 348.28054 481.08984 346.68359 C 482.27227 344.47416 481.09194 343.8409 478.79297 345.45117 C 477.35501 346.45835 477.19444 346.88439 478.05273 347.41992 C 478.88094 347.93672 478.93135 348.45021 478.25977 349.52734 C 477.24353 351.15728 465.27104 357.73628 463.17578 357.81641 C 462.41118 357.84563 460.50259 358.48228 458.93359 359.23047 C 457.36464 359.97869 455.80267 360.29332 455.46289 359.92969 C 455.123 359.56605 455.25745 359.12079 455.76172 358.93945 C 456.26598 358.7581 458.72763 357.37628 461.23047 355.86914 C 463.73331 354.36201 466.38765 353.01134 467.13086 352.86719 C 467.87407 352.72305 468.64659 352.11152 468.84766 351.50781 C 469.30037 350.14836 468.44447 350.39324 456.06055 355.17773 C 446.21854 358.98016 439.66091 361.43357 437.08984 362.27539 C 435.91895 362.65875 435.76614 363.01418 436.46875 363.7168 C 437.1714 364.41941 439.18777 364.11333 444.66211 362.47461 C 453.14239 359.93607 452.82031 359.97591 452.82031 361.43555 C 452.82031 362.64441 448.84657 364.34974 446.01562 364.35352 C 445.07963 364.35518 443.12093 365.08517 441.66211 365.97461 C 438.05791 368.1721 435.93938 368.04226 434.99805 365.56641 C 434.41094 364.0222 433.64568 363.54102 431.77734 363.54102 C 430.21296 363.54102 429.32617 363.95304 429.32617 364.67969 C 429.32617 366.0105 435.44047 369.83838 440.66797 371.78125 C 444.8355 373.33018 448.4487 373.62578 449.16016 372.47461 C 449.42805 372.04117 451.18184 371.28296 453.05664 370.79102 C 456.47545 369.89391 468.7542 364.07633 470.19727 362.66992 C 470.62057 362.25739 471.57869 361.91992 472.32617 361.91992 C 473.07361 361.91992 474.16257 361.34568 474.74609 360.64258 C 475.32962 359.93948 477.65239 358.42966 479.9082 357.28711 C 488.01552 353.18074 497.43155 346.31917 512.88086 333.25977 C 518.3761 328.61461 519.59923 326.19468 516.73242 325.64258 C 516.61572 325.6201 516.48354 325.61498 516.33594 325.62695 z M 515.33984 327.11914 C 515.75348 327.04334 516.05478 327.46018 515.86523 328.4375 C 515.7212 329.1803 515.17617 329.92977 514.6543 330.10352 C 514.05048 330.30448 513.86359 329.81204 514.14062 328.75195 C 514.39952 327.76192 514.9262 327.19494 515.33984 327.11914 z M 383.46484 327.92773 L 379.49023 331.96289 C 375.64804 335.86378 375.36638 335.99644 371.0293 335.94141 C 368.56198 335.91009 365.91736 335.63557 365.15234 335.33203 C 363.63535 334.73015 365.06033 334.10049 377.0293 330.08594 L 383.46484 327.92773 z M 505.87695 327.96094 C 505.42695 327.89636 504.61756 328.29144 503.5 329.13672 C 502.63509 329.79089 501.35863 330.3302 500.66406 330.33398 C 499.96946 330.33782 495.75635 332.19891 491.30078 334.46875 C 480.38286 340.03074 463.95331 346.84963 458.08594 348.25586 C 455.13299 348.96359 445.88876 352.33367 439.22266 355.13281 C 437.75945 355.74722 435.8337 356.25 434.94336 356.25 C 431.79448 356.25 427.70703 358.51544 427.70703 360.25977 C 427.70703 361.61162 428.22356 361.92188 430.48047 361.92188 C 433.21673 361.92187 446.49275 357.70295 452.00977 355.08008 C 456.04324 353.1625 452.6982 354.0837 445.26758 356.9375 C 437.03762 360.09828 431.49558 361.49424 429.78516 360.83789 C 427.706 360.04004 428.86771 359.01499 433.1543 357.86523 C 435.28217 357.29449 439.93943 355.75383 443.50391 354.44141 C 447.06838 353.12899 451.80735 351.38605 454.03516 350.56836 C 456.26292 349.75066 460.58295 348.31511 463.63477 347.37891 C 466.68662 346.44269 470.19677 345.15231 471.43555 344.51172 C 474.55445 342.89886 480.7256 340.82296 479.85938 341.67773 C 479.01907 342.50689 467.99313 347.97979 461.9082 350.58789 C 459.55545 351.59631 457.76648 352.55565 457.93164 352.7207 C 458.63376 353.42283 485.42293 340.84869 496.16016 334.77734 C 499.72463 332.76182 503.46232 330.69593 504.46484 330.18555 C 505.46733 329.67516 506.28711 328.95019 506.28711 328.57617 C 506.28711 328.20391 506.14695 327.99968 505.87695 327.96094 z M 244.92773 331.18555 C 245.25791 331.23001 245.43359 331.48838 245.43359 331.9668 C 245.43359 332.42338 244.49838 333.15336 243.35547 333.58789 C 240.29008 334.75335 239.937 334.51584 242.08008 332.73047 C 243.39693 331.63342 244.37744 331.11144 244.92773 331.18555 z M 511.41797 332.01562 C 511.46761 332.02139 511.50882 332.03811 511.53906 332.06836 C 511.74886 332.27816 511.36111 333.24703 510.67773 334.22266 C 509.43385 335.99855 507.90625 336.59938 507.90625 335.3125 C 507.90625 334.45351 510.67341 331.92921 511.41797 332.01562 z M 270.29492 333.7207 C 268.75135 333.56743 270.41222 336.29596 274.80859 341.00391 C 278.3879 344.83688 280.57175 346.51518 282.29297 346.75586 C 282.30108 346.75699 282.31216 346.75863 282.32031 346.75977 L 275.17188 338.98633 C 274.62947 338.87372 274.1177 338.67414 273.58398 338.36328 C 271.95487 337.41441 271.79543 336.69939 272.82617 336.4375 L 270.33398 333.72852 C 270.32228 333.72708 270.30627 333.72183 270.29492 333.7207 z M 336.49609 335.36914 C 336.22149 335.39555 335.90727 335.45083 335.55664 335.53516 C 334.33136 335.82982 331.97689 336.36606 330.32422 336.72852 C 328.67154 337.09098 326.34414 338.0277 325.15234 338.80859 C 323.96055 339.58949 320.78313 341.01703 318.0918 341.98047 C 315.40047 342.9439 313.0494 344.178 312.86719 344.72461 C 312.37322 346.2065 314.71775 345.92893 318.13086 344.09961 C 319.79349 343.20849 321.61343 342.47852 322.17578 342.47852 C 322.73814 342.47852 325.47774 341.42702 328.26367 340.14062 C 331.0496 338.85423 334.33136 337.5706 335.55664 337.28906 C 336.78193 337.00751 337.78516 336.37768 337.78516 335.88867 C 337.78516 335.46886 337.31989 335.2899 336.49609 335.36914 z M 236.90625 336.24414 C 236.98171 336.23357 237.03015 336.23718 237.04883 336.25586 C 237.25023 336.45726 236.07428 337.72539 234.43555 339.07617 C 231.12564 341.80448 228.67427 342.73434 227.93555 341.53906 C 227.66773 341.10569 227.5764 340.63563 227.73242 340.49609 C 228.6609 339.66565 235.77442 336.40268 236.90625 336.24414 z M 313.02148 336.91016 L 309.77734 338.00977 C 311.30017 337.84684 312.46343 337.46734 313.02148 336.91016 z M 312.60352 339.33789 C 312.32209 339.3263 312.00138 339.37713 311.70898 339.49414 C 311.06274 339.75276 311.25549 339.94548 312.19922 339.98438 C 313.05321 340.01955 313.5309 339.82781 313.26172 339.55859 C 313.12712 339.42402 312.88494 339.34948 312.60352 339.33789 z M 307.45312 340.04883 C 306.75849 340.04883 306.19141 340.41186 306.19141 340.85742 C 306.19141 341.30299 306.53386 341.66797 306.95312 341.66797 C 307.37239 341.66797 307.94142 341.30298 308.2168 340.85742 C 308.49217 340.41185 308.14776 340.04883 307.45312 340.04883 z M 499.37695 340.05664 C 500.07913 340.00885 500.63764 340.23815 500.96484 340.76758 C 501.7923 342.10642 487.93391 352.06126 479.00391 356.54297 C 476.69628 357.70111 474.57769 359.02059 474.29688 359.47461 C 474.01628 359.92864 472.53317 360.30078 471 360.30078 C 469.11092 360.30078 468.21289 360.67834 468.21289 361.4707 C 468.21289 363.01799 465.07251 365.16211 462.80664 365.16211 C 461.81402 365.16211 460.70993 365.66869 460.35352 366.28906 C 459.55229 367.68409 454.07392 370.02148 451.60547 370.02148 C 450.60057 370.02148 449.32421 370.56799 448.76953 371.23633 C 448.21489 371.90466 447.16854 372.43283 446.44336 372.41016 C 444.67212 372.35411 439.04883 369.98791 439.04883 369.29883 C 439.04883 368.32103 443.42079 366.19577 446.61328 365.62109 C 450.34893 364.9486 453.63086 363.53686 453.63086 362.60156 C 453.63086 362.22752 454.09968 361.91992 454.67383 361.91992 C 455.24794 361.91992 457.06439 361.23399 458.71094 360.39453 C 460.35749 359.55506 463.34499 358.62289 465.34961 358.32227 C 467.35427 358.02165 469.27357 357.34131 469.61523 356.81055 C 469.9569 356.27978 471.69628 355.1355 473.47852 354.26758 C 475.26075 353.39965 477.44675 352.08281 478.33789 351.3418 C 479.22899 350.60078 481.72514 349.48858 483.88477 348.87109 C 486.04435 348.25361 488.15425 347.10921 488.57227 346.32812 C 488.99032 345.54704 490.05214 344.9082 490.93164 344.9082 C 491.81114 344.9082 493.67358 343.81519 495.07227 342.47852 C 496.63668 340.9835 498.20666 340.13629 499.37695 340.05664 z M 505.80664 341.76953 C 505.38567 341.76029 503.94619 342.66416 501.83203 344.48633 C 500.0498 346.02243 499.05174 347.29196 499.61523 347.30859 C 500.17872 347.32532 502.00174 346.07279 503.66602 344.52539 C 505.62942 342.69992 506.22761 341.77877 505.80664 341.76953 z M 300.76758 342.57031 C 299.48162 342.60258 297.72098 343.15213 297.47656 343.89648 C 297.10671 345.02283 297.63876 345.11655 300.31836 344.39844 C 301.32086 344.12978 302.14062 343.56381 302.14062 343.14062 C 302.14062 342.71778 301.53915 342.55095 300.76758 342.57031 z M 296.22656 342.59961 L 293.74609 343.43945 C 293.09038 344.00201 292.36535 344.52313 291.57227 344.92773 C 289.8455 345.80867 287.7107 346.5293 286.82812 346.5293 C 286.29153 346.5293 285.83235 346.41576 285.46289 346.24609 L 283.51562 346.90625 C 284.6433 347.04212 285.83017 347.17006 286.57227 347.21875 C 288.83621 347.36731 294.96672 344.30699 296.22656 342.59961 z M 346.16406 343.65234 C 344.58981 343.51232 342.2386 344.29419 338.79492 345.77148 C 336.58818 346.71815 335.05765 348.01224 334.54102 349.37109 C 332.8935 353.70441 334.22897 371.09314 336.49023 374.75195 C 337.38043 376.19229 340.05097 375.86561 340.5625 374.25391 C 340.81321 373.46395 340.65441 371.55409 340.21094 370.00781 C 339.10412 366.14857 339.04192 366.29164 342.44336 364.92969 C 347.71008 362.82085 348.68554 361.05544 349 353.05859 C 349.25092 346.67739 348.78782 343.88572 346.16406 343.65234 z M 306.57422 346.67383 C 305.56215 346.73364 304.52774 347.04056 303.99805 347.48242 C 303.29179 348.07156 301.76589 349.00527 300.60547 349.55664 C 298.55298 350.53189 298.56983 350.54586 301.24414 350.07422 C 302.75612 349.80757 305.30713 349.00438 306.91406 348.28906 L 309.83594 346.98828 L 307.55859 346.70117 C 307.24554 346.66153 306.91157 346.65389 306.57422 346.67383 z M 475.60352 347.70898 C 475.47609 347.72798 475.32085 347.77069 475.14062 347.83984 C 474.44912 348.1052 473.88281 348.46552 473.88281 348.64062 C 473.88281 349.29674 475.42661 348.92797 475.90234 348.1582 C 476.1152 347.81379 475.9858 347.652 475.60352 347.70898 z M 282.15039 348.25391 C 281.58422 348.23712 281.06149 348.29265 280.67383 348.44141 C 280.0045 348.69825 279.45703 349.67425 279.45703 350.60938 C 279.45703 351.83921 279.84956 352.20002 280.875 351.91406 C 285.30024 350.67995 285.9375 350.40458 285.9375 349.73047 C 285.9375 348.99946 283.84891 348.30426 282.15039 348.25391 z M 329.92773 349.83398 C 329.53287 349.85583 329.02824 349.92456 328.38281 350.0293 C 324.80925 350.60921 322.05933 352.33895 320.20312 355.17188 C 317.28953 359.61858 319.03733 377.53325 322.61914 379.93359 C 324.96133 381.50319 332.51953 378.56591 332.51953 376.08594 C 332.51953 374.70059 332.05338 374.51025 329.16992 374.72266 C 326.04488 374.95279 325.76235 374.79527 324.91797 372.37305 C 323.94936 369.59453 323.68212 359.67326 324.51758 357.49609 C 324.79532 356.77234 326.43679 355.45932 328.16406 354.57812 C 330.31324 353.4817 331.30469 352.43567 331.30469 351.26562 C 331.30469 350.13227 331.11233 349.76844 329.92773 349.83398 z M 342.40039 349.89062 C 342.57324 349.90458 342.74821 349.94433 342.92383 350.01172 C 345.09845 350.8462 344.76384 357.42683 342.46484 359.03711 C 340.20595 360.61921 339.69971 360.61705 339.08594 359.01758 C 337.63365 355.23299 339.80765 349.68126 342.40039 349.89062 z M 296.69531 350.62109 C 296.3081 350.62109 295.64285 350.87799 294.84961 351.39062 C 293.80241 352.06738 293.82336 352.17692 295.00391 352.1875 C 295.75734 352.19432 296.59962 351.83619 296.875 351.39062 C 297.19182 350.87799 297.08252 350.62109 296.69531 350.62109 z M 493.7168 351.33594 C 492.93145 351.23293 491.20389 351.9412 489.95117 353.02148 C 488.91082 353.91866 487.33055 355.18197 486.43945 355.83008 C 485.54843 356.47818 485.08676 357.02079 485.41406 357.03516 C 486.13822 357.06649 494.13477 352.19682 494.13477 351.72461 C 494.13477 351.49381 493.97858 351.37027 493.7168 351.33594 z M 292.05664 352.27344 C 291.33384 352.25349 290.08823 352.65009 288.49805 353.50586 L 285.65625 355.03516 L 288.02539 355.51562 C 289.80313 355.87674 290.76498 355.58118 291.88281 354.32617 C 293.05172 353.01382 292.98596 352.29909 292.05664 352.27344 z M 315.12891 354.8418 C 312.9158 354.64181 307.32471 357.77531 306.12109 360.0293 C 305.37255 361.4311 304.99661 364.58471 305.03516 369.13477 C 305.09809 376.55674 306.37376 381.93944 308.46094 383.58984 C 310.3354 385.07206 313.51351 384.82349 316.57812 382.95508 C 319.97312 380.88522 319.53882 379.40625 315.44336 379.0918 C 311.10467 378.75886 310.24023 377.28482 310.24023 370.2168 C 310.24023 363.39137 310.93671 361.62857 314.31641 359.88086 C 316.89785 358.54594 317.58644 355.71938 315.52344 354.92773 C 315.40822 354.88352 315.27645 354.85513 315.12891 354.8418 z M 456.9375 355.83789 C 457.37325 355.79022 457.67969 355.95172 457.67969 356.27539 C 457.67969 356.70696 457.13318 357.06055 456.46484 357.06055 C 455.79651 357.06055 455.25 356.91729 455.25 356.74219 C 455.25 356.56707 455.79651 356.21351 456.46484 355.95703 C 456.63193 355.89292 456.79225 355.85378 456.9375 355.83789 z M 283.10352 356.28711 L 280.5293 357.00391 C 279.11408 357.39905 277.29109 358.1095 276.47852 358.58203 C 275.15325 359.35271 275.21064 359.4416 277.02734 359.44727 C 278.14124 359.45091 279.96423 358.74241 281.07812 357.87109 L 283.10352 356.28711 z M 482.38867 358.60547 L 479.80664 359.85352 C 478.38682 360.53915 476.99812 361.46729 476.7207 361.91602 C 475.79941 363.40668 477.49553 362.75058 479.95898 360.66406 L 482.38867 358.60547 z M 301.06055 359.70508 C 298.7447 359.5641 294.68629 361.79949 292.70312 364.82617 C 291.69536 366.36421 291.34368 368.71414 291.34375 373.92773 C 291.34386 381.8347 292.5973 387.37717 294.66992 388.63477 C 297.20568 390.17341 304.97461 387.73463 304.97461 385.40039 C 304.97461 384.56655 303.93601 384.12163 301.5957 383.95117 C 297.45339 383.64964 296.68755 382.78231 296.44336 378.12109 C 295.98981 369.46325 296.26679 368.39814 299.82617 365.14453 C 302.19315 362.9809 303.02745 361.66777 302.6543 360.69531 C 302.41112 360.06161 301.8325 359.75207 301.06055 359.70508 z M 415.5957 360.39844 C 415.89472 360.4081 416.01508 360.48969 416.125 360.59961 C 416.98673 361.46135 416.21942 361.77507 404.97461 365.16211 C 398.9861 366.96593 391.8999 369.21069 389.22656 370.15039 C 386.55323 371.09006 380.35622 372.90003 375.45508 374.17188 C 370.55394 375.44369 363.08046 377.569 358.84766 378.89648 C 350.7362 381.44033 332.88865 386.80961 324.01367 389.375 C 321.11754 390.21217 316.71044 391.48699 314.2207 392.20703 C 309.34281 393.61766 305.37612 393.94714 306.63672 392.83789 C 307.06 392.46542 311.23375 390.96701 315.91211 389.50781 C 320.59048 388.04861 326.22015 386.2861 328.42188 385.5918 C 330.6236 384.89746 333.72112 384.06004 335.30664 383.73047 C 336.89216 383.40089 340.19396 382.41512 342.64453 381.53906 C 348.82624 379.32913 361.56761 375.69336 363.13086 375.69336 C 363.84251 375.69336 365.63194 375.00139 367.10547 374.15625 C 368.57903 373.31111 372.15269 372.02544 375.04883 371.29883 C 377.94497 370.57221 383.59543 369.04708 387.60547 367.91016 C 409.61925 361.66872 414.29995 360.35658 415.5957 360.39844 z M 215.4668 360.83398 C 207.1224 361.04895 197.11386 365.07479 187.42578 370.59961 C 198.59973 365.31556 209.07036 361.79575 215.4668 360.83398 z M 221.66992 361.49805 C 222.31437 362.45735 221.44827 364.17759 218.61914 366.76367 C 213.90351 371.07419 214.44577 372.66477 220.92969 373.53516 C 225.51029 374.15005 226.64798 373.97061 233.28711 371.5957 C 238.93132 369.57672 240.69977 368.58038 241.03906 367.22852 C 241.06943 367.10752 241.07954 366.93323 241.08984 366.75781 L 225.16406 373.28711 L 216.20117 371.0332 L 224.63867 362.58398 C 223.69835 362.12552 222.70334 361.77374 221.66992 361.49805 z M 267.80469 361.67383 C 265.6108 361.78218 259.38904 363.84144 258.25195 364.97852 C 256.85625 366.37407 259.82967 366.31636 262.92773 364.88672 C 264.22147 364.28974 266.16904 363.44239 267.25586 363.00391 C 268.34267 362.56542 268.88917 362.00372 268.4707 361.75586 C 268.34822 361.68331 268.1181 361.65835 267.80469 361.67383 z M 474.26562 363.81055 C 473.80774 363.6536 470.2385 365.17057 466.33398 367.17969 C 464.55721 368.09395 462.83405 368.91032 461.37305 369.55859 C 464.99346 368.22927 468.66062 366.87802 472.57812 365.16602 C 473.82051 364.41229 474.50168 363.89141 474.26562 363.81055 z M 212.82227 368.26953 C 213.06982 368.25271 213.00843 368.40878 212.62305 368.74414 C 211.28637 369.90733 209.10035 371.45484 207.76367 372.18164 C 206.427 372.90844 204.2049 374.36033 202.82617 375.4082 C 201.44743 376.45608 199.7919 377.3125 199.14844 377.3125 C 198.50498 377.3125 196.54866 378.04249 194.80078 378.93359 C 191.52447 380.60396 189.12464 381.06336 189.85547 379.88086 C 190.084 379.51111 195.8468 376.37913 202.66211 372.91992 C 208.55693 369.9279 212.0796 368.31998 212.82227 368.26953 z M 419.20117 368.4043 L 415.55469 368.89844 C 413.54969 369.17094 411.36365 369.70608 410.69531 370.08789 C 408.65233 371.25512 411.36894 370.98568 415.55469 369.60547 L 419.20117 368.4043 z M 250.46484 368.46094 C 250.15001 368.45167 249.67972 368.69608 249.26758 369.11133 C 248.47346 369.91142 248.56614 370.00405 249.7207 369.56445 C 250.51963 369.2602 250.97011 368.80804 250.7207 368.55859 C 250.65835 368.49624 250.56979 368.46403 250.46484 368.46094 z M 457.86914 370.86523 C 457.86455 370.86545 457.854 370.86903 457.84961 370.86914 C 457.19774 370.88639 455.44609 371.57935 453.69727 372.47266 C 455.09796 371.90946 456.48455 371.38333 457.86914 370.86523 z M 426.16992 371.64258 C 424.33145 371.64258 417.18436 373.48525 413.5293 374.90234 C 410.41213 376.11092 390.38417 381.36328 388.89258 381.36328 C 388.06456 381.36328 385.61486 381.90764 383.44727 382.57227 C 381.27971 383.23686 374.94842 385.09081 369.37891 386.69141 C 363.80943 388.29207 357.42897 390.13435 355.20117 390.78711 C 352.97338 391.43983 349.57769 392.31465 347.6543 392.73047 C 345.7309 393.14625 343.73293 393.74823 343.21484 394.06836 C 342.18438 394.70525 323.94824 399.6813 318.74805 400.74414 C 316.96581 401.10841 314.15067 402.00036 312.49414 402.72656 C 310.8376 403.4528 308.65158 404.05103 307.63477 404.05859 C 305.62326 404.0719 301.15518 405.5379 298.3457 407.10742 C 297.37249 407.65114 295.5495 408.10182 294.29492 408.10938 C 290.3691 408.13073 289.58666 409.1918 289.54883 414.54297 C 289.52983 417.23229 289.07568 419.86575 288.53711 420.4043 C 287.99914 420.94227 287.55859 421.67484 287.55859 422.03125 C 287.55859 423.73952 300.29639 420.71749 302.74805 418.42773 C 306.40296 415.01418 303.96539 413.46164 298.14062 415.49219 C 296.0592 416.21774 295.29041 416.17548 294.4043 415.28906 C 292.63907 413.52327 294.2884 411.94339 298.62695 411.24414 C 306.7762 409.93068 330.30567 404.24229 334.79883 402.5 C 336.05312 402.01365 337.98995 401.61523 339.10156 401.61523 C 340.21317 401.61523 345.38321 400.36789 350.5918 398.8418 C 361.7184 395.58169 364.69602 394.81814 365.55469 395.00977 C 365.90229 395.08732 367.1788 394.65015 368.39062 394.03711 C 369.60245 393.42407 372.59826 392.49189 375.04883 391.9668 C 380.11903 390.88041 386.38093 389.12511 392.87109 386.9707 C 397.32908 385.49087 404.04694 383.84517 413.93555 381.80664 C 416.83169 381.20959 420.29419 380.35748 421.63086 379.91406 C 422.96753 379.47065 426.2485 378.66526 428.92188 378.12305 C 435.66145 376.75614 436.19408 376.55728 435.33594 375.74805 C 433.67136 374.17837 428.0087 371.64258 426.16992 371.64258 z M 425.11914 372.73047 C 426.39493 372.69672 427.5027 372.93322 428.45312 373.4375 C 432.32045 375.48948 431.21392 376.98699 425.27734 377.73828 C 423.96675 377.90416 422.2463 378.3872 421.45312 378.81055 C 420.65995 379.23389 417.82376 379.84772 415.15039 380.17578 C 412.47706 380.50384 408.64953 381.26585 406.64453 381.86914 C 402.03835 383.25494 401.83525 383.25013 401.24609 381.71484 C 400.48558 379.73297 401.9025 378.93241 407.81641 378.01172 C 410.83062 377.54245 415.09144 376.2581 417.28516 375.15625 C 420.39814 373.59268 422.99283 372.78672 425.11914 372.73047 z M 245.74219 372.7832 C 247.28528 372.76551 248.67383 373.66845 248.67383 374.98242 C 248.67383 375.3736 247.21583 375.69336 245.43359 375.69336 C 241.77858 375.69336 241.19735 374.49204 244.19336 373.12695 C 244.69684 372.89755 245.22782 372.7891 245.74219 372.7832 z M 211.35156 376.83789 C 209.98841 376.84812 209.08046 376.88374 208.77344 376.95117 C 207.51518 377.22753 204.95064 378.61057 203.07422 380.02344 C 201.19779 381.43626 198.65888 383.03662 197.43359 383.58008 C 196.20831 384.1235 195.20703 384.91078 195.20703 385.33008 C 195.20703 386.43019 201.93547 388.43892 208.97852 389.44141 C 212.32021 389.91706 218.1522 390.79008 221.93945 391.38086 C 227.69595 392.28024 229.03434 392.27701 230.10352 391.36523 C 230.80694 390.76535 232.00531 390.27539 232.76562 390.27539 C 233.897 390.27539 233.9909 390.56852 233.28125 391.89453 C 232.28069 393.76407 233.21306 394.03969 235.81641 392.64648 C 237.03815 391.99263 237.21903 391.51964 236.55273 390.7168 C 235.61773 389.5902 236.9653 388.65234 239.52148 388.65234 C 240.53907 388.65234 240.58394 388.87845 239.76172 389.86914 C 238.99782 390.78953 238.98903 391.08398 239.72266 391.08398 C 240.25537 391.08398 241.99967 389.62599 243.59961 387.84375 C 245.19956 386.06151 247.21409 384.60352 248.07617 384.60352 C 248.93825 384.60352 250.7913 384.07803 252.19531 383.43555 C 253.59932 382.79306 255.65628 382.15477 256.76562 382.01758 C 259.92364 381.62689 259.81308 379.22189 256.61133 378.65625 C 252.722 377.96917 220.89363 376.7663 211.35156 376.83789 z M 212.69336 377.50391 C 213.70246 377.47735 214.80413 377.55352 216.11914 377.71875 C 218.65252 378.03695 226.37509 378.26549 233.28125 378.22656 C 240.18741 378.18778 246.74938 378.47828 247.86328 378.87305 C 248.97718 379.26782 250.56658 379.81217 251.39648 380.08203 C 252.63065 380.48327 252.7246 380.79326 251.90625 381.7793 C 251.35595 382.44238 250.20147 382.98438 249.3418 382.98438 C 248.48212 382.98437 246.43093 383.68063 244.7832 384.53125 C 240.02872 386.98568 238.03394 387.77998 233.28125 389.11328 C 225.99838 391.15642 225.59277 391.22755 224.93945 390.57422 C 224.59498 390.2299 222.98245 390.03688 221.35547 390.14648 C 218.05429 390.3688 213.78673 388.92666 212.75977 387.24023 C 212.28211 386.45579 211.7931 386.3783 211.07227 386.97656 C 209.83515 388.00327 201.88016 387.55201 200.7168 386.38867 C 199.30481 384.97668 203.71117 380.11872 207.83203 378.54492 C 209.58315 377.87611 211.01152 377.54816 212.69336 377.50391 z M 383.89453 378.22266 C 383.6131 378.21108 383.29043 378.26193 382.99805 378.37891 C 382.35179 378.63739 382.54457 378.83021 383.48828 378.86914 C 384.34219 378.90433 384.81988 378.71246 384.55078 378.44336 C 384.41617 378.30881 384.17596 378.23423 383.89453 378.22266 z M 397.39258 380.70117 C 398.68864 380.78402 399.75781 381.29333 399.75781 382.17383 C 399.75781 382.91401 398.4914 383.71059 396.51758 384.21289 C 394.73534 384.6664 392.481 385.48618 391.50781 386.03516 C 390.53458 386.58413 389.07659 387.05141 388.26758 387.07031 C 387.45853 387.08985 385.33888 387.66775 383.55664 388.35547 C 380.19944 389.6509 374.51931 391.0138 371 391.36719 C 368.32398 391.63587 364.31561 392.77235 363.30273 393.55078 C 362.85717 393.89321 360.67116 394.41739 358.44336 394.71484 C 356.21558 395.01237 353.29761 395.72994 351.96094 396.31055 C 350.62426 396.89112 348.25477 397.82441 346.69531 398.38477 C 345.13586 398.94512 342.49311 399.57577 340.82227 399.78516 C 338.39426 400.08956 337.78516 399.89936 337.78516 398.83984 C 337.78516 398.1107 338.4234 397.32544 339.20312 397.09375 C 339.98285 396.86218 341.71411 396.08884 343.05078 395.375 C 344.38746 394.6612 346.93847 393.78982 348.7207 393.43945 C 350.50294 393.08905 353.96739 392.20862 356.41797 391.48242 C 358.86853 390.75626 363.06104 389.61492 365.73438 388.94727 C 368.40771 388.27965 371.32371 387.4281 372.21484 387.05469 C 375.75267 385.57171 384.57717 383.52876 388.26758 383.33789 C 390.5266 383.22114 392.79919 382.56591 393.66406 381.7832 C 394.57279 380.96082 396.09652 380.61832 397.39258 380.70117 z M 193.24219 387.28516 C 193.1109 387.29497 192.99464 387.3293 192.89258 387.37891 L 195.25391 388.13672 C 195.08932 388.04989 194.93961 387.96004 194.83008 387.86914 C 194.34579 387.46713 193.71881 387.24953 193.24219 387.28516 z M 389.74219 389.76172 C 389.47893 389.76823 389.23758 389.81381 389.0293 389.9043 C 388.24614 390.24442 386.92804 390.43672 386.09961 390.33203 C 385.08518 390.20375 384.79605 390.46816 385.21289 391.14258 C 385.38507 391.42101 385.4403 391.58674 385.42383 391.67773 L 391.4375 390.11914 C 390.84735 389.8887 390.25342 389.74907 389.74219 389.76172 z M 383.88672 391.34766 C 383.53366 391.37849 383.18083 391.50308 382.91211 391.71484 C 382.3747 392.13838 379.92909 392.6844 377.47852 392.92969 C 375.02795 393.17494 371.93046 393.83492 370.59375 394.39648 C 369.25708 394.95808 366.34109 395.85202 364.11328 396.38281 C 361.88548 396.91361 349.30804 400.115 336.16406 403.49609 C 302.72362 412.09815 305.17985 411.2521 307.35938 413.43164 C 308.37729 414.44954 308.01736 415.07633 304.57227 418.29883 C 301.14578 421.50391 299.82668 422.15928 294.69531 423.21094 C 291.43798 423.87852 288.41058 424.77591 287.96875 425.20508 C 286.60864 426.52621 289.02898 427.34117 292.26367 426.65039 C 293.90831 426.2992 297.25841 425.61129 299.70898 425.12305 C 306.45668 423.77867 310.45218 422.87828 312.46875 422.24805 C 315.83504 421.19602 314.33094 422.75044 310.03711 424.76172 C 308.47022 425.49566 307.52365 426.0372 307.39062 426.24219 L 311.26367 425.44531 C 311.76701 425.08809 312.701 424.56905 313.99023 423.96875 C 318.08101 422.06402 319.75844 420.58462 318.85352 419.67969 C 318.60003 419.42619 315.91987 419.97558 312.89844 420.90039 C 309.877 421.8252 305.94825 422.81381 304.16602 423.09766 L 300.92578 423.61523 L 304.16602 420.12891 C 308.61683 415.3407 308.05023 415.56601 315.85742 415.46094 C 327.52939 415.30394 328.16199 417.64293 317.88477 422.95898 C 316.40433 423.72477 314.95407 424.40988 313.74609 424.93555 L 314.28516 424.82422 C 325.66746 419.91983 327.99803 416.00581 326.49805 414.50391 C 325.34789 413.3524 314.50957 414.73755 308.51562 414.85547 L 308.86719 411.51758 L 370.43164 395.5625 C 370.49001 395.519 370.53528 395.48259 370.59961 395.43555 C 372.26682 394.21646 373.49405 393.96689 374.08398 394.61523 L 385.2207 391.73047 C 385.12782 391.69677 385.01049 391.63831 384.85938 391.54492 C 384.59243 391.37991 384.23977 391.31682 383.88672 391.34766 z M 320.14453 391.89258 C 321.27316 391.82969 321.74434 392.0866 320.67578 392.71094 C 319.95414 393.13258 315.58015 394.61935 310.95508 396.01562 C 306.33002 397.41186 300.90541 399.07943 298.90039 399.7207 C 296.89538 400.36198 292.88442 401.4556 289.98828 402.15039 C 287.09215 402.84514 283.99463 403.71964 283.10352 404.0957 C 282.2124 404.47169 280.02442 405.16091 278.24219 405.625 L 278.24219 405.62305 C 274.22168 406.67013 273.56391 406.68292 274.17188 405.69922 C 274.43613 405.27164 276.73447 404.30379 279.28125 403.54883 C 281.82803 402.79387 286.39561 401.32066 289.42969 400.27539 C 292.46376 399.23012 295.99659 398.375 297.28125 398.375 C 298.5659 398.375 300.82334 397.6751 302.29688 396.81836 C 303.77041 395.96165 306.79132 394.9954 309.01172 394.67188 C 311.23211 394.34854 314.22877 393.59239 315.66992 392.99023 C 317.22969 392.33851 319.0159 391.95546 320.14453 391.89258 z M 339.85742 391.89453 C 339.21538 391.89453 338.46483 392.25951 338.18945 392.70508 C 337.91408 393.15046 338.44001 393.51562 339.35742 393.51562 C 340.27484 393.51563 341.02539 393.15061 341.02539 392.70508 C 341.02539 392.2597 340.49946 391.89453 339.85742 391.89453 z M 230.08789 393.51562 C 229.61604 393.51562 229.23047 393.8806 229.23047 394.32617 C 229.23047 394.77155 229.39139 395.13477 229.58789 395.13477 C 229.78437 395.13477 230.16994 394.77174 230.44531 394.32617 C 230.72069 393.88079 230.55975 393.51562 230.08789 393.51562 z M 303.79297 393.73438 C 304.23497 393.77888 304.41264 393.92188 304.16602 394.18555 C 302.69762 395.75545 297.6362 397.47725 296.51953 396.78711 C 295.67405 396.26459 295.77458 395.94133 296.98242 395.29492 C 298.75996 394.34367 302.46696 393.60087 303.79297 393.73438 z M 335.64453 397.6582 C 336.2893 397.6153 335.75432 398.30965 334.18164 399.95117 C 332.39002 401.82124 330.91386 402.45552 327.34766 402.88477 C 324.8455 403.18596 321.56888 403.93431 320.06641 404.54883 C 316.85371 405.86274 316.68578 405.87358 315.10938 404.87695 C 313.23369 403.69109 315.22014 402.24628 319.74023 401.50977 C 326.50312 400.40781 330.83255 399.43427 333.17969 398.48633 C 334.44715 397.97443 335.25767 397.68394 335.64453 397.6582 z M 288.17578 398.40234 C 290.3518 398.4432 279.24948 402.78589 273.38086 404.18945 C 271.59862 404.61571 268.50111 405.35449 266.49609 405.83203 C 258.84899 407.65339 258.24175 407.29006 264.875 404.85938 C 272.35618 402.11797 285.91666 398.36001 288.17578 398.40234 z M 308.02344 404.9707 C 308.58695 404.95045 309.22423 404.96514 309.95312 405.01172 L 313.88672 405.26367 L 310.75 406.67969 C 309.02474 407.45899 306.76757 408.09766 305.73438 408.09766 C 304.70119 408.09766 303.63085 408.46068 303.35547 408.90625 C 302.58194 410.15784 300.51953 409.86406 300.51953 408.50195 C 300.51953 407.43337 301.53571 406.90467 302.46094 407.49023 C 302.63694 407.60165 303.50969 407.03262 304.40039 406.22656 C 305.30059 405.41191 306.33289 405.03145 308.02344 404.9707 z M 272.17773 405.80469 C 272.44066 405.81218 272.6233 405.85377 272.70312 405.93359 C 272.95002 406.18047 271.88926 406.90859 270.34766 407.55273 C 268.80605 408.19684 265.94205 408.96087 263.98242 409.25 C 260.55987 409.75525 260.49986 409.72824 262.44531 408.57812 C 264.55455 407.33119 270.33723 405.75225 272.17773 405.80469 z M 253.22461 408.09766 C 253.89291 408.09766 254.21483 408.46263 253.93945 408.9082 C 253.66408 409.35358 252.89099 409.7168 252.22266 409.7168 C 251.55435 409.7168 251.23244 409.35377 251.50781 408.9082 C 251.78318 408.46282 252.55627 408.09766 253.22461 408.09766 z M 301.57422 415.98438 C 302.01576 415.98546 302.14062 416.21313 302.14062 416.66992 C 302.14063 417.27007 301.50238 418.0918 300.72266 418.49609 C 298.72888 419.52972 292.04533 420.4145 291.36523 419.73438 C 290.15741 418.52659 290.9082 417.81527 293.43164 417.78125 C 294.87971 417.76167 297.43072 417.25841 299.10156 416.66211 C 300.3733 416.20853 301.13268 415.98329 301.57422 415.98438 z M 298.02148 423.58984 C 298.30291 423.60142 298.5451 423.676 298.67969 423.81055 C 298.94888 424.07995 298.47117 424.27034 297.61719 424.23633 C 296.67345 424.19744 296.48071 424.00461 297.12695 423.74609 C 297.41935 423.62912 297.74005 423.57827 298.02148 423.58984 z M 284.63477 426.33203 C 283.98062 426.33828 283.50781 427.0754 283.50781 428.39648 C 283.50781 429.5966 284.07233 429.9707 285.89062 429.9707 C 287.201 429.9707 288.49806 429.60572 288.77344 429.16016 C 289.04881 428.71478 288.74946 428.34961 288.10938 428.34961 C 287.4693 428.34961 286.49591 427.806 285.94531 427.14258 C 285.4843 426.58709 285.02725 426.32828 284.63477 426.33203 z M 304.14453 426.88086 C 302.81918 426.87505 301.31038 427.2382 300.18359 427.72656 L 304.26367 426.88672 C 304.22335 426.88585 304.18527 426.88104 304.14453 426.88086 z M 277.83203 434.00586 C 275.64218 435.7796 273.09534 439.76145 265.4375 453.22266 C 260.44932 461.99101 260.73567 462.73921 268.85156 462.13672 C 272.57683 461.86017 277.07569 462.09817 280.26562 462.74023 C 283.16176 463.32319 284.762 463.84319 283.82031 463.89648 C 282.87862 463.94959 280.32566 463.6566 278.14844 463.24414 C 275.95447 462.82877 272.92691 462.79052 271.35547 463.16016 C 268.90034 463.73778 269.24632 463.83835 273.93555 463.91016 C 280.13583 464.0051 284.67344 465.30094 282.69141 466.41016 C 281.16177 467.26622 268.74139 470.04121 261.22852 471.20508 C 243.82063 473.90188 225.17969 474.75921 225.17969 472.86328 C 225.17969 469.95535 251.15143 464.69592 265.99414 464.59766 C 267.7185 464.58624 268.00375 464.40121 267.08789 463.88867 C 266.38526 463.4953 264.0103 463.54392 261.60547 464 C 259.27192 464.44254 255.44814 464.80469 253.10742 464.80469 C 249.03853 464.80469 236.65893 467.02324 229.68555 469.00391 C 226.55996 469.89168 222.74805 472.51177 222.74805 473.77148 C 222.74805 476.34988 255.5245 473.92603 274.08984 469.97461 C 277.15352 469.32245 279.84968 468.97648 280.08008 469.20703 C 280.59007 469.71704 280.31055 469.80557 269.99023 472.42773 C 265.45214 473.58075 260.28016 474.52539 258.49805 474.52539 C 256.71594 474.52539 254.2328 474.91701 252.97852 475.39648 C 252.278 475.66425 250.1251 475.94509 247.41406 476.17578 C 261.32071 476.1406 276.40399 473.97074 286.73633 466.01562 C 286.73796 465.99371 286.74805 465.96842 286.74805 465.94727 C 286.74805 465.31854 287.11108 464.80273 287.55664 464.80273 C 287.76618 464.80273 287.92162 464.86686 288.04688 464.95508 C 288.73266 464.36958 289.40135 463.76476 290.03711 463.12109 C 290.34466 461.00917 276.95825 460.61084 262.55859 460.33984 L 277.83203 434.00586 z M 259.04102 461.16602 C 256.32472 461.10235 248.04806 462.00624 242.19141 463.1543 C 236.46766 464.27642 235.47906 464.41263 235.16016 463.52148 L 230.92578 466.10938 C 232.48687 465.99078 233.56521 465.80748 233.72266 465.55273 C 233.98624 465.12603 234.49872 464.96142 234.86133 465.18555 C 235.22394 465.40967 238.91059 464.86759 243.05273 463.98242 C 247.19487 463.09722 252.24871 462.34664 254.28516 462.31641 C 256.3216 462.28507 258.71826 461.95425 259.60938 461.58008 C 260.23536 461.31731 259.94645 461.18724 259.04102 461.16602 z "
       transform="scale(0.26458333)"
       id="path821" />
  </g>
</svg>
